<svg width="66" height="67" viewBox="0 0 66 67" fill="none" xmlns="http://www.w3.org/2000/svg">
<g id="Frame 805">
<rect width="66" height="66" transform="translate(0 0.140137)" fill="#380043"/>
<path id="Vector" d="M36.1671 18.8826V28.93C36.1671 31.0097 34.4808 32.6937 32.4034 32.6937C30.5298 32.6937 28.977 31.3236 28.6889 29.5319C28.6585 29.3211 28.6421 29.1057 28.6421 28.8855V18.8802C28.6421 18.4751 28.3095 18.1425 27.9043 18.1425H22.7377C22.3326 18.1425 22 18.4751 22 18.8802V28.1759C22 34.5205 24.5833 38.6519 30.7429 38.6519C32.8437 38.6519 34.6096 37.9867 35.9516 36.8157C35.9516 39.5208 33.1669 40.7176 30.8951 40.7176C28.6233 40.7176 26.6701 40.3733 24.0399 38.9095C23.6512 38.6917 23.1921 38.947 23.1921 39.3896V45.1441C23.1921 45.4017 23.3397 45.6593 23.5973 45.7717C26.3609 46.9849 28.3493 47.3573 30.8951 47.3573C38.8183 47.3573 43.1933 43.1158 43.1933 33.8179V18.8779C43.1933 18.4727 42.8607 18.1401 42.4555 18.1401H36.9049C36.4997 18.1401 36.1671 18.4727 36.1671 18.8779" fill="#FFFF6C"/>
</g>
</svg>
