<svg width="75" height="40" viewBox="0 0 75 40" fill="none" xmlns="http://www.w3.org/2000/svg">
<g id="Logo" clip-path="url(#clip0_217_769)">
<path id="Vector" d="M35.8827 24.5051C35.1684 25.0765 34.2433 25.3927 33.1589 25.3927C32.0745 25.3927 31.1471 25.0765 30.4351 24.5051C29.2804 23.6643 28.5286 22.3012 28.5286 20.7625C28.5286 19.3057 29.2031 18.0059 30.2547 17.158C30.9901 16.4999 31.9808 16.1322 33.1589 16.1322C34.3369 16.1322 35.3276 16.4999 36.063 17.158C37.1146 18.0059 37.7891 19.3057 37.7891 20.7625C37.7891 22.3012 37.0373 23.6619 35.885 24.5051M33.1612 10.2302C26.559 10.2302 22.2051 14.3616 22.2051 20.7086C22.2051 27.0556 26.559 31.297 33.1612 31.297C39.7635 31.297 44.1174 27.0907 44.1174 20.7086C44.1174 14.3265 39.7635 10.2302 33.1612 10.2302Z" fill="#FFFF6C"/>
<path id="Vector_2" d="M51.0216 10.8203H45.8574C45.4522 10.8203 45.1196 11.1529 45.1196 11.5581V30.0041C45.1196 30.4093 45.4522 30.7419 45.8574 30.7419H51.0216C51.4268 30.7419 51.7594 30.4093 51.7594 30.0041V11.5581C51.7594 11.1529 51.4268 10.8203 51.0216 10.8203Z" fill="#FFFF6C"/>
<path id="Vector_3" d="M48.4011 8.57427C50.7689 8.57427 52.6894 6.65379 52.6894 4.28596C52.6894 1.91815 50.7689 0 48.4011 0C46.0333 0 44.1128 1.92049 44.1128 4.28831C44.1128 6.65613 46.0333 8.57661 48.4011 8.57661" fill="#FFFF6C"/>
<path id="Vector_4" d="M65.3272 10.2302C63.114 10.2302 61.2684 10.968 59.9054 12.2584V11.5582C59.9054 11.153 59.5728 10.8204 59.1676 10.8204H54.0034C53.5982 10.8204 53.2656 11.153 53.2656 11.5582V30.0042C53.2656 30.4094 53.5982 30.742 54.0034 30.742H59.1676C59.5728 30.742 59.9054 30.4094 59.9054 30.0042V19.9568C59.9054 17.877 61.5916 16.1931 63.669 16.1931C65.5427 16.1931 67.0955 17.5632 67.3835 19.3549C67.414 19.5657 67.4304 19.7811 67.4304 20.0013V30.0066C67.4304 30.4117 67.763 30.7443 68.1681 30.7443H73.3324C73.7375 30.7443 74.0701 30.4117 74.0701 30.0066V20.7109C74.0701 14.3663 71.4868 10.2326 65.3272 10.2326" fill="#FFFF6C"/>
<path id="Vector_5" d="M14.1671 11.5205V21.5679C14.1671 23.6477 12.4808 25.3316 10.4034 25.3316C8.52977 25.3316 6.97699 23.9615 6.68892 22.1698C6.65847 21.9591 6.64208 21.7436 6.64208 21.5234V11.5182C6.64208 11.113 6.3095 10.7804 5.90433 10.7804H0.737748C0.332572 10.7804 0 11.113 0 11.5182V20.8138C0 27.1584 2.58329 31.2898 8.7429 31.2898C10.8437 31.2898 12.6096 30.6247 13.9516 29.4536C13.9516 32.1587 11.1669 33.3555 8.89513 33.3555C6.62334 33.3555 4.67006 33.0112 2.03993 31.5474C1.65115 31.3296 1.19211 31.5849 1.19211 32.0276V37.782C1.19211 38.0396 1.33966 38.2973 1.59728 38.4097C4.36091 39.6229 6.34932 39.9952 8.89513 39.9952C16.8183 39.9952 21.1933 35.7538 21.1933 26.4558V11.5158C21.1933 11.1106 20.8607 10.7781 20.4555 10.7781H14.9049C14.4997 10.7781 14.1671 11.1106 14.1671 11.5158" fill="#FFFF6C"/>
</g>
<defs>
<clipPath id="clip0_217_769">
<rect width="74.0699" height="40" fill="white"/>
</clipPath>
</defs>
</svg>
